<svg width="61" height="27" viewBox="0 0 61 27" fill="none" xmlns="http://www.w3.org/2000/svg">
<path d="M1.8 21.5H6.012C8.964 21.5 11.016 20.222 11.016 17.63C11.016 15.83 9.9 14.786 8.334 14.48V14.39C9.558 13.994 10.26 12.842 10.26 11.528C10.26 9.206 8.406 8.288 5.724 8.288H1.8V21.5ZM3.474 13.922V9.62H5.508C7.56 9.62 8.622 10.196 8.622 11.744C8.622 13.076 7.704 13.922 5.436 13.922H3.474ZM3.474 20.168V15.182H5.778C8.082 15.182 9.378 15.938 9.378 17.576C9.378 19.358 8.046 20.168 5.778 20.168H3.474ZM13.4861 21.5H15.1241V11.726H13.4861V21.5ZM14.3141 9.71C14.9621 9.71 15.4121 9.278 15.4121 8.612C15.4121 7.982 14.9621 7.55 14.3141 7.55C13.6661 7.55 13.2161 7.982 13.2161 8.612C13.2161 9.278 13.6661 9.71 14.3141 9.71ZM18.4431 21.5H20.0631V18.926L21.8991 16.784L24.7611 21.5H26.5431L22.8531 15.668L26.1111 11.726H24.2751L20.1171 16.892H20.0631V7.172H18.4431V21.5ZM31.9652 21.734C33.2972 21.734 34.3412 21.284 35.2052 20.726L34.6112 19.646C33.8912 20.132 33.1172 20.42 32.1632 20.42C30.3092 20.42 29.0312 19.088 28.9232 17H35.5112C35.5472 16.766 35.5832 16.424 35.5832 16.064C35.5832 13.274 34.1792 11.474 31.6952 11.474C29.4272 11.474 27.2852 13.454 27.2852 16.622C27.2852 19.844 29.3732 21.734 31.9652 21.734ZM28.9052 15.812C29.1032 13.904 30.3272 12.788 31.7132 12.788C33.2432 12.788 34.1432 13.85 34.1432 15.812H28.9052Z" fill="#F25C54"/>
<circle cx="45.5" cy="13.5" r="4.5" fill="#F25C54"/>
<circle cx="57.5" cy="13.5" r="3.5" fill="#F25C54"/>
</svg>
